<svg xmlns="http://www.w3.org/2000/svg" xmlns:xlink="http://www.w3.org/1999/xlink" width="800" height="446"><defs><linearGradient id="g" x1="100%" x2="0%" y1="50%" y2="50%"><stop offset="0%" stop-color="#1B89C7"/><stop offset="99.989%" stop-color="#568697"/></linearGradient><linearGradient id="a" x1="100%" x2="0%" y1="50%" y2="50%"><stop offset="0%" stop-color="#BD6D5E"/><stop offset="47.774%" stop-color="#DF9139"/><stop offset="100%" stop-color="#C9816F"/></linearGradient><linearGradient id="c" x1="50%" x2="50%" y1="0%" y2="100%"><stop offset="0%" stop-color="#C9816F"/><stop offset="100%" stop-color="#B32257"/><stop offset="100%" stop-color="#D2A08E"/></linearGradient><linearGradient id="l" x1="50%" x2="50%" y1="0%" y2="100%"><stop offset="0%" stop-color="#9AEFFD"/><stop offset="100%" stop-color="#61DAFB"/></linearGradient><linearGradient id="e" x1="100%" x2="0%" y1="50%" y2="50%"><stop offset="0%" stop-color="#61529C"/><stop offset="100%" stop-color="#861C77"/></linearGradient><linearGradient id="k" x1="0%" x2="100%" y1="0%" y2="100%"><stop offset="0%" stop-color="#19181D"/><stop offset="100%"/></linearGradient><linearGradient id="m" x1="50%" x2="50%" y1="0%" y2="100%"><stop offset="0%" stop-color="#9AEFFD"/><stop offset="100%" stop-color="#61DAFB"/></linearGradient><filter id="b" width="143.6%" height="145.3%" x="-21.8%" y="-22.6%" filterUnits="objectBoundingBox"><feGaussianBlur in="SourceGraphic" stdDeviation="12"/></filter><filter id="h" width="143.6%" height="143.6%" x="-21.8%" y="-21.8%" filterUnits="objectBoundingBox"><feGaussianBlur in="SourceGraphic" stdDeviation="12"/></filter><filter id="f" width="143.6%" height="143.6%" x="-21.8%" y="-21.8%" filterUnits="objectBoundingBox"><feGaussianBlur in="SourceGraphic" stdDeviation="12"/></filter><filter id="i" width="111.7%" height="111.7%" x="-5.5%" y="-5.5%" filterUnits="objectBoundingBox"><feMorphology in="SourceAlpha" operator="dilate" radius=".5" result="shadowSpreadOuter1"/><feOffset dx="1" dy="1" in="shadowSpreadOuter1" result="shadowOffsetOuter1"/><feGaussianBlur in="shadowOffsetOuter1" result="shadowBlurOuter1" stdDeviation="5.5"/><feComposite in="shadowBlurOuter1" in2="SourceAlpha" operator="out" result="shadowBlurOuter1"/><feColorMatrix in="shadowBlurOuter1" values="0 0 0 0 1 0 0 0 0 1 0 0 0 0 1 0 0 0 0.414909309 0"/></filter><filter id="d" width="143.6%" height="143.6%" x="-21.8%" y="-21.8%" filterUnits="objectBoundingBox"><feGaussianBlur in="SourceGraphic" stdDeviation="12"/></filter><path id="j" d="M250 64h300v300H250z"/></defs><g fill="none" fill-rule="evenodd"><path fill="#1F2026" d="M0 0h800v446H0z"/><path fill="url(#a)" d="M235 55h165v159H235z" filter="url(#b)"/><path fill="url(#c)" d="M235 207h165v165H235z" filter="url(#d)"/><path fill="url(#e)" d="M400 207h165v165H400z" filter="url(#f)"/><path fill="url(#g)" d="M400 55h165v165H400z" filter="url(#h)"/><use xlink:href="#j" fill="#000" filter="url(#i)"/><use xlink:href="#j" fill="url(#k)" stroke="#FFF" stroke-opacity=".398"/><g fill-rule="nonzero" transform="translate(276 103)"><path fill="url(#l)" d="M248 110.525c0-16.44-20.574-32.02-52.117-41.68 7.279-32.172 4.044-57.767-10.212-65.962C182.386.961 178.544.051 174.348.051v11.28c2.325 0 4.196.455 5.763 1.315 6.875 3.945 9.857 18.969 7.532 38.292-.556 4.755-1.466 9.762-2.578 14.871-9.908-2.428-20.726-4.3-32.1-5.513-6.824-9.358-13.901-17.856-21.029-25.292 16.48-15.327 31.948-23.724 42.463-23.724V0c-13.902 0-32.1 9.914-50.5 27.113C105.499 10.016 87.3.203 73.399.203v11.28c10.464 0 25.983 8.346 42.462 23.571-7.077 7.436-14.154 15.884-20.877 25.242-11.424 1.214-22.242 3.085-32.15 5.564a152.695 152.695 0 0 1-2.629-14.67c-2.375-19.322.557-34.346 7.38-38.342 1.517-.91 3.489-1.315 5.814-1.315V.253c-4.246 0-8.088.91-11.424 2.833-14.205 8.194-17.39 33.739-10.06 65.809C20.473 78.607 0 94.136 0 110.525c0 16.44 20.574 32.02 52.117 41.681-7.279 32.171-4.044 57.767 10.212 65.961C65.614 220.09 69.456 221 73.702 221c13.902 0 32.1-9.914 50.5-27.113 18.4 17.097 36.599 26.91 50.5 26.91 4.246 0 8.088-.91 11.424-2.832 14.205-8.195 17.39-33.74 10.06-65.81 31.341-9.66 51.814-25.24 51.814-41.63Zm-65.817-33.739c-1.87 6.525-4.195 13.253-6.824 19.98-2.072-4.046-4.246-8.093-6.622-12.14-2.325-4.046-4.802-7.992-7.28-11.836 7.179 1.062 14.104 2.377 20.726 3.996Zm-23.152 53.872c-3.943 6.828-7.987 13.303-12.182 19.323A262.853 262.853 0 0 1 124 150.992c-7.633 0-15.266-.354-22.748-.96a278.864 278.864 0 0 1-12.233-19.223 263.546 263.546 0 0 1-10.514-20.132c3.134-6.778 6.672-13.556 10.464-20.183 3.943-6.829 7.987-13.303 12.182-19.323A262.853 262.853 0 0 1 124 70.16c7.633 0 15.266.354 22.748.96a278.864 278.864 0 0 1 12.233 19.222 263.546 263.546 0 0 1 10.514 20.133c-3.184 6.778-6.672 13.556-10.464 20.183Zm16.328-6.576a216.878 216.878 0 0 1 6.976 20.132 226.74 226.74 0 0 1-20.827 4.047c2.477-3.895 4.954-7.891 7.28-11.989 2.325-4.046 4.499-8.144 6.571-12.19Zm-51.258 53.972c-4.701-4.856-9.402-10.268-14.053-16.186 4.55.202 9.2.354 13.901.354 4.752 0 9.453-.101 14.053-.354a197.405 197.405 0 0 1-13.9 16.186Zm-37.61-29.793c-7.178-1.063-14.103-2.378-20.725-3.996 1.87-6.526 4.196-13.253 6.824-19.981 2.073 4.047 4.247 8.093 6.622 12.14a335.058 335.058 0 0 0 7.28 11.837Zm37.357-105.265c4.702 4.856 9.403 10.269 14.053 16.187-4.55-.202-9.2-.354-13.901-.354-4.752 0-9.453.101-14.053.354 4.55-5.918 9.25-11.33 13.901-16.187ZM86.441 72.79c-2.477 3.895-4.954 7.89-7.28 11.988a285.81 285.81 0 0 0-6.57 12.14 216.878 216.878 0 0 1-6.977-20.132 245.353 245.353 0 0 1 20.827-3.996Zm-45.748 63.33c-17.895-7.638-29.47-17.653-29.47-25.595 0-7.941 11.575-18.007 29.47-25.595 4.347-1.872 9.1-3.54 14.002-5.109 2.882 9.914 6.673 20.233 11.374 30.805-4.65 10.522-8.391 20.79-11.222 30.654-5.004-1.568-9.756-3.288-14.154-5.16Zm27.196 72.285c-6.875-3.946-9.857-18.97-7.532-38.292.556-4.755 1.466-9.763 2.578-14.872 9.908 2.428 20.726 4.3 32.1 5.514 6.824 9.358 13.901 17.856 21.029 25.292-16.48 15.327-31.948 23.723-42.463 23.723-2.274-.05-4.195-.505-5.712-1.365Zm119.906-38.545c2.375 19.323-.557 34.346-7.38 38.342-1.517.91-3.489 1.316-5.814 1.316-10.464 0-25.983-8.347-42.462-23.572 7.077-7.436 14.154-15.884 20.877-25.242 11.424-1.214 22.242-3.085 32.15-5.564 1.163 5.109 2.072 10.016 2.629 14.72Zm19.461-33.74c-4.347 1.872-9.099 3.541-14.002 5.11-2.881-9.915-6.673-20.234-11.374-30.806 4.65-10.521 8.392-20.79 11.222-30.654 5.005 1.569 9.757 3.288 14.205 5.16 17.895 7.638 29.47 17.654 29.47 25.595-.05 7.942-11.626 18.008-29.52 25.596Z"/><circle cx="123" cy="111" r="23" fill="url(#m)"/></g></g></svg>